<?xml version="1.0" encoding="UTF-8"?>
<!DOCTYPE svg PUBLIC "-//W3C//DTD SVG 1.1//EN" "http://www.w3.org/Graphics/SVG/1.1/DTD/svg11.dtd">
<svg xmlns="http://www.w3.org/2000/svg" version="1.1" width="40px" height="40px" style="shape-rendering:geometricPrecision; text-rendering:geometricPrecision; image-rendering:optimizeQuality; fill-rule:evenodd; clip-rule:evenodd" xmlns:xlink="http://www.w3.org/1999/xlink">
<g><path style="opacity:1" fill="#3079c7" d="M -0.5,-0.5 C 12.8333,-0.5 26.1667,-0.5 39.5,-0.5C 39.5,12.8333 39.5,26.1667 39.5,39.5C 26.1667,39.5 12.8333,39.5 -0.5,39.5C -0.5,26.1667 -0.5,12.8333 -0.5,-0.5 Z"/></g>
<g><path style="opacity:1" fill="#f4f8fc" d="M 12.5,19.5 C 16.0071,18.9935 19.1737,19.6602 22,21.5C 22.9794,26.6895 20.8128,29.3562 15.5,29.5C 15.5,31.1667 15.5,32.8333 15.5,34.5C 14.5,34.5 13.5,34.5 12.5,34.5C 12.5,29.5 12.5,24.5 12.5,19.5 Z"/></g>
<g><path style="opacity:1" fill="#f6f9fc" d="M 25.5,19.5 C 28.1873,19.3359 30.854,19.5026 33.5,20C 36.0701,22.6153 36.0701,25.282 33.5,28C 34.8333,30 36.1667,32 37.5,34C 36.0563,34.7805 34.723,34.6139 33.5,33.5C 30.1156,26.6231 28.4489,26.9564 28.5,34.5C 27.5,34.5 26.5,34.5 25.5,34.5C 25.5,29.5 25.5,24.5 25.5,19.5 Z"/></g>
<g><path style="opacity:1" fill="#3d80ca" d="M 15.5,22.5 C 16.8333,22.5 18.1667,22.5 19.5,22.5C 19.8333,25.5 18.5,26.8333 15.5,26.5C 15.5,25.1667 15.5,23.8333 15.5,22.5 Z"/></g>
<g><path style="opacity:1" fill="#85b0de" d="M 31.5,22.5 C 28.8333,23.5 28.8333,24.5 31.5,25.5C 30.791,26.404 29.791,26.7373 28.5,26.5C 28.5,24.8333 28.5,23.1667 28.5,21.5C 29.791,21.2627 30.791,21.596 31.5,22.5 Z"/></g>
<g><path style="opacity:1" fill="#3079c7" d="M 31.5,22.5 C 32.8333,23.5 32.8333,24.5 31.5,25.5C 28.8333,24.5 28.8333,23.5 31.5,22.5 Z"/></g>
</svg>
